<?xml version="1.0" encoding="UTF-8" standalone="no"?>
<!-- Created with Inkscape (http://www.inkscape.org/) -->

<svg
   xmlns:dc="http://purl.org/dc/elements/1.1/"
   xmlns:cc="http://creativecommons.org/ns#"
   xmlns:rdf="http://www.w3.org/1999/02/22-rdf-syntax-ns#"
   xmlns:svg="http://www.w3.org/2000/svg"
   xmlns="http://www.w3.org/2000/svg"
   version="1.1"
   width="609.44879"
   height="219.68503"
   viewBox="0 0 609.44881 219.68503"
   id="Ebene_1"
   xml:space="preserve"><metadata
   id="metadata244"><rdf:RDF><cc:Work
       rdf:about=""><dc:format>image/svg+xml</dc:format><dc:type
         rdf:resource="http://purl.org/dc/dcmitype/StillImage" /><dc:title></dc:title></cc:Work></rdf:RDF></metadata><defs
   id="defs242" />
<path
   d="m 66.55127,119.98788 c 2.979,10.502 8.563,22.057 15.045,30.458 7.174,9.632 18.224002,18.196 30.64399,22.209 10.654,1.411 16.792,-1.025 21.858,-10.133 17.662,-32.117 6.831,-82.588009 -22.383,-104.994009 -5.785,-4.377 -13.66499,-8.746 -22.05699,-9.972 -6.998,0 -9.107,0.516 -12.249,3.16 -5.073,4.004 -8.573,10.144 -10.497,16.617 -5.775,16.969 -4.195,39.188009 -0.361,52.655009 m -44.441,-49.678009 c -7.87,10.851 -13.6460008,25.362 -14.5200008,38.665009 -1.398,13.991 -0.172,30.445 2.8069998,42.86 2.272001,12.268 9.972001,26.43 16.444001,35.341 11.542,15.408 28.869,24.326 49.532,24.326 16.617,0 31.47699,-8.031 43.73399,-21.85 7.008,-9.289 9.107,-10.859 20.311,-12.449 12.932,-1.729 24.837,-8.562 32.879,-16.099 10.153,-9.623 19.251,-25.706 22.751,-41.815 4.029,-17.83301 4.029,-38.129009 -0.172,-56.174009 -2.635,-11.193 -8.746,-23.087 -14.349,-30.624 -9.619,-13.112 -26.074,-23.0749996 -42.527,-23.7889996 -10.478,-0.521 -22.043,0.535 -32.36,4.7399996 -7.702988,3.14 -15.06299,8.042 -20.29599,15.388 -8.583,11.905 -12.43,11.827 -24.152,13.131 -16.463,2.724 -30.803,15.056 -40.082,28.349 z"
   id="path236"
   style="fill:#4e77bb;fill-rule:evenodd" />
<path
   d="m 565.39826,210.14688 c 1.021,0.061 2.041,0.061 3.067,0 22.655,-1.404 33.001,-19.885 33.504,-40.45 0.184,-21.498 -8.516,-43.536 -33.43,-45.187 -0.981,-0.045 -1.998,-0.034 -3.081,0 -22.654,1.345 -32.427,19.494 -33.506,40.416 -0.536,21.157 8.316,43.741 33.446,45.221 m -17.823,-44.484 c 0.879,-14.467 6.034,-26.798 18.557,-27.74 0.542,-0.055 1.115,-0.055 1.677,0 15.285,1.226 18.48,18.931 18.48,31.03 -0.925,14.534 -5.947,26.875 -18.48,27.819 -0.581,0.037 -1.169,0.045 -1.75,0 -15.326,-1.164 -18.484,-18.995 -18.484,-31.109 z m -193.769,42.977 h 15.398 l -24.858,-81.358 h -18.191 l -24.841,81.184 h 15.399 l 5.242,-18.004 h 26.43 l 5.421,18.178 z m -8.562,-29.03 -9.973,-34.834 -10.166,34.834 h 20.139 z m -84.249,29.057 h -7.174 l -15.742,-61.591 v 61.246 h -13.656 v -81.189 h 21.699 l 15.219,54.773 14.882,-54.604 h 21.886 v 81.184 h -13.838 v -61.41 l -15.738,61.591 h -7.538 z m 219.501,-61.963 v 61.935 h -13.986 v -81.526 h 20.988 l 25.543,59.497 v -59.497 h 13.817 v 81.526 h -19.757 l -26.605,-61.935 z m -46.916,-19.64 h -18.709 l -27.461,36.926 31.155,44.441 h 17.31 l -31.138,-44.441 28.843,-36.926 z m -60.15,0 h 13.828 v 81.371 h -13.828 v -81.371 z m 67.544,0 h 13.815 v 81.371 h -13.815 v -81.371 z"
   id="path238"
   style="fill:#333333;fill-rule:evenodd" />
</svg>